<svg width="24" height="24" viewBox="0 0 24 24" fill="none" xmlns="http://www.w3.org/2000/svg">
<path d="M4.36507 17.997C4.53597 19.4353 5.69476 20.5767 7.1407 20.661C8.76228 20.7556 10.3987 20.8052 12.2078 20.8052C14.0168 20.8052 15.6533 20.7556 17.2749 20.661C18.7208 20.5767 19.8796 19.4353 20.0505 17.997C20.2372 16.4255 20.4156 14.8025 20.4156 13.1423C20.4156 11.482 20.2372 9.85899 20.0505 8.28748C19.8796 6.8492 18.7208 5.70786 17.2749 5.62351C15.6533 5.52892 14.0168 5.47934 12.2078 5.47934C10.3987 5.47934 8.76228 5.52892 7.1407 5.62351C5.69476 5.70786 4.53597 6.8492 4.36507 8.28748C4.17834 9.85899 4 11.482 4 13.1423C4 14.8025 4.17834 16.4255 4.36507 17.997Z" fill="white"/>
<path d="M19.8281 11.8698L4.58917 11.8698L4.80308 6.44606L12.1188 5.91545L19.8281 6.44606L19.8281 11.8698Z" fill="#F2F3F5"/>
<path d="M9.1875 4.00064L9.1875 7.41392" stroke="#505567" stroke-width="1.5" stroke-linecap="round"/>
<path d="M15.2187 4.00064L15.2187 7.41392" stroke="#505567" stroke-width="1.5" stroke-linecap="round"/>
<path d="M17.2749 5.62351L17.2312 6.37224L17.2749 5.62351ZM17.2749 20.661L17.2312 19.9123L17.2749 20.661ZM12.2078 20.0552C10.413 20.0552 8.79118 20.006 7.18437 19.9123L7.09702 21.4097C8.73339 21.5052 10.3844 21.5552 12.2078 21.5552V20.0552ZM17.2312 19.9123C15.6244 20.006 14.0025 20.0552 12.2078 20.0552V21.5552C14.0312 21.5552 15.6822 21.5052 17.3185 21.4097L17.2312 19.9123ZM20.7952 18.0855C20.982 16.5141 21.1656 14.8515 21.1656 13.1423H19.6656C19.6656 14.7534 19.4925 16.3369 19.3057 17.9085L20.7952 18.0855ZM21.1656 13.1423C21.1656 11.433 20.982 9.77037 20.7952 8.19898L19.3057 8.37597C19.4925 9.94761 19.6656 11.5311 19.6656 13.1423H21.1656ZM12.2078 6.22934C14.0025 6.22934 15.6244 6.27851 17.2312 6.37224L17.3185 4.87479C15.6822 4.77933 14.0312 4.72934 12.2078 4.72934V6.22934ZM7.18437 6.37224C8.79118 6.27851 10.413 6.22934 12.2078 6.22934V4.72934C10.3844 4.72934 8.73339 4.77933 7.09702 4.87479L7.18437 6.37224ZM3.62031 8.19898C3.4336 9.77037 3.25 11.433 3.25 13.1423H4.75C4.75 11.5311 4.92309 9.94761 5.10983 8.37597L3.62031 8.19898ZM3.25 13.1423C3.25 14.8515 3.4336 16.5141 3.62031 18.0855L5.10983 17.9085C4.92309 16.3369 4.75 14.7534 4.75 13.1423H3.25ZM20.7952 8.19898C20.5835 6.41723 19.1445 4.9813 17.3185 4.87479L17.2312 6.37224C18.2971 6.43442 19.1756 7.28117 19.3057 8.37597L20.7952 8.19898ZM17.3185 21.4097C19.1445 21.3032 20.5835 19.8673 20.7952 18.0855L19.3057 17.9085C19.1756 19.0033 18.2971 19.8501 17.2312 19.9123L17.3185 21.4097ZM7.09702 4.87479C5.27109 4.9813 3.83202 6.41723 3.62031 8.19898L5.10983 8.37597C5.23992 7.28117 6.11843 6.43442 7.18437 6.37224L7.09702 4.87479ZM7.18437 19.9123C6.11843 19.8501 5.23992 19.0033 5.10983 17.9085L3.62031 18.0855C3.83202 19.8673 5.27109 21.3032 7.09702 21.4097L7.18437 19.9123Z" fill="#505567"/>
<path d="M4.39453 11.3595H20.1054" stroke="#505567" stroke-width="1.5"/>
</svg>
