<svg width="24" height="24" viewBox="0 0 24 24" fill="none" xmlns="http://www.w3.org/2000/svg">
<path d="M4 7.83313H20.0011" stroke="#505567" stroke-width="1.5" stroke-linecap="round"/>
<path d="M17.7477 7.83313H6.24529L6.16298 9.32142C6.00526 12.1729 6.13926 15.0331 6.56291 17.8574C6.74765 19.089 7.80563 20.0001 9.05101 20.0001H14.942C16.1874 20.0001 17.2453 19.089 17.4301 17.8574C17.8537 15.0331 17.9877 12.1729 17.83 9.32142L17.7477 7.83313Z" fill="#F2F3F5"/>
<path d="M6.24529 7.83313V7.08313C5.84717 7.08313 5.51842 7.3942 5.49644 7.79171L6.24529 7.83313ZM17.7477 7.83313L18.4965 7.79171C18.4746 7.3942 18.1458 7.08313 17.7477 7.08313V7.83313ZM17.83 9.32142L18.5789 9.28V9.28L17.83 9.32142ZM6.16298 9.32142L5.41412 9.28L6.16298 9.32142ZM6.56291 17.8574L5.8212 17.9686L6.56291 17.8574ZM17.4301 17.8574L18.1718 17.9686L17.4301 17.8574ZM6.24529 8.58313H17.7477V7.08313H6.24529V8.58313ZM14.942 19.2501H9.05101V20.7501H14.942V19.2501ZM16.9988 7.87455L17.0811 9.36284L18.5789 9.28L18.4965 7.79171L16.9988 7.87455ZM6.91183 9.36284L6.99415 7.87455L5.49644 7.79171L5.41412 9.28L6.91183 9.36284ZM7.30461 17.7461C6.88854 14.9724 6.75693 12.1634 6.91183 9.36284L5.41412 9.28C5.25358 12.1825 5.38998 15.0938 5.8212 17.9686L7.30461 17.7461ZM17.0811 9.36284C17.236 12.1634 17.1044 14.9724 16.6884 17.7461L18.1718 17.9686C18.603 15.0938 18.7394 12.1825 18.5789 9.28L17.0811 9.36284ZM9.05101 19.2501C8.17688 19.2501 7.43428 18.6106 7.30461 17.7461L5.8212 17.9686C6.06102 19.5674 7.43438 20.7501 9.05101 20.7501V19.2501ZM14.942 20.7501C16.5586 20.7501 17.932 19.5674 18.1718 17.9686L16.6884 17.7461C16.5587 18.6106 15.8161 19.2501 14.942 19.2501V20.7501Z" fill="#505567"/>
<path d="M8.80078 7.83303V7.19401C8.80078 6.34662 9.13741 5.53393 9.73661 4.93473C10.3358 4.33553 11.1485 3.9989 11.9959 3.9989C12.8433 3.9989 13.656 4.33553 14.2552 4.93473C14.8544 5.53393 15.191 6.34662 15.191 7.19401V7.83303" stroke="#505567" stroke-width="1.5" stroke-linecap="round" stroke-linejoin="round"/>
<path d="M10.082 11.2546V16.5515" stroke="#505567" stroke-width="1.5" stroke-linecap="round" stroke-linejoin="round"/>
<path d="M13.9141 11.2546V16.5515" stroke="#505567" stroke-width="1.5" stroke-linecap="round" stroke-linejoin="round"/>
</svg>
