<svg width="24" height="24" viewBox="0 0 24 24" fill="none" xmlns="http://www.w3.org/2000/svg">
<path d="M12.0006 21C17.7609 21 21.0011 17.7598 21.0011 11.9995C21.0011 6.2391 17.7609 2.9989 12.0006 2.9989C6.2402 2.9989 3 6.2391 3 11.9995C3 17.7598 6.2402 21 12.0006 21Z" fill="#F2F3F5"/>
<path d="M20.2511 11.9995C20.2511 14.7416 19.4822 16.778 18.1306 18.1295C16.7791 19.4811 14.7427 20.25 12.0006 20.25V21.75C15.0188 21.75 17.4827 20.8988 19.1913 19.1902C20.8999 17.4816 21.7511 15.0177 21.7511 11.9995H20.2511ZM12.0006 20.25C9.25843 20.25 7.22205 19.4811 5.87048 18.1295C4.5189 16.778 3.75 14.7416 3.75 11.9995H2.25C2.25 15.0177 3.1012 17.4816 4.80981 19.1902C6.51843 20.8988 8.98233 21.75 12.0006 21.75V20.25ZM3.75 11.9995C3.75 9.25733 4.5189 7.22095 5.87048 5.86938C7.22205 4.5178 9.25843 3.7489 12.0006 3.7489V2.2489C8.98233 2.2489 6.51843 3.1001 4.80981 4.80872C3.1012 6.51733 2.25 8.98123 2.25 11.9995H3.75ZM12.0006 3.7489C14.7427 3.7489 16.7791 4.5178 18.1306 5.86938C19.4822 7.22095 20.2511 9.25733 20.2511 11.9995H21.7511C21.7511 8.98123 20.8999 6.51733 19.1913 4.80872C17.4827 3.1001 15.0188 2.2489 12.0006 2.2489V3.7489Z" fill="#505567"/>
<path d="M8.39844 15.6006L15.5989 8.40015" stroke="#505567" stroke-width="1.5" stroke-linecap="round" stroke-linejoin="round"/>
<path d="M9.11848 9.84024C9.51615 9.84024 9.83853 9.51786 9.83853 9.12019C9.83853 8.72252 9.51615 8.40015 9.11848 8.40015C8.72081 8.40015 8.39844 8.72252 8.39844 9.12019C8.39844 9.51786 8.72081 9.84024 9.11848 9.84024Z" fill="#505567" stroke="#505567" stroke-width="1.5" stroke-linecap="round" stroke-linejoin="round"/>
<path d="M14.8802 15.6009C15.2779 15.6009 15.6002 15.2785 15.6002 14.8808C15.6002 14.4831 15.2779 14.1608 14.8802 14.1608C14.4825 14.1608 14.1602 14.4831 14.1602 14.8808C14.1602 15.2785 14.4825 15.6009 14.8802 15.6009Z" fill="#505567" stroke="#505567" stroke-width="1.5" stroke-linecap="round" stroke-linejoin="round"/>
</svg>
