<svg width="48" height="48" viewBox="0 0 48 48" fill="none" xmlns="http://www.w3.org/2000/svg">
<path d="M3.98828 28.0016L9.09149 19.4963C9.67882 18.5174 10.5331 17.7263 11.5542 17.2158L12.725 16.6303C13.5585 16.2136 14.4776 15.9966 15.4094 15.9966H44.0049" stroke="#E2195B" stroke-width="2" stroke-linecap="round" stroke-linejoin="round"/>
<path d="M7.99219 42.0075L19.5207 37.8418C21.1298 37.2603 22.5102 36.1786 23.4594 34.7551L29.4477 25.7755C30.3187 24.4695 30.1466 22.7302 29.0365 21.6201V21.6201C27.7508 20.3344 25.6662 20.3342 24.3802 21.6197L19.9972 26.0008H15.9955" stroke="#E2195B" stroke-width="2" stroke-linecap="round" stroke-linejoin="round"/>
<path d="M27.9628 28.0017H39.3733C41.9785 27.9543 44.0526 25.8049 44.0068 23.1997V14.7962C44.0526 12.1909 41.9785 10.0415 39.3733 9.99417H24.6303C22.0251 10.0415 19.9511 12.1909 19.9968 14.7962V14.7962V26.0008" stroke="#E2195B" stroke-width="2" stroke-linecap="round" stroke-linejoin="round"/>
</svg>
