<svg width="42" height="30" viewBox="0 0 42 30" fill="none" xmlns="http://www.w3.org/2000/svg">
<path fill-rule="evenodd" clip-rule="evenodd" d="M26.2441 29.8079C34.3964 29.8079 41.0039 23.2005 41.0039 15.0482C41.0039 6.8959 34.3964 0.288452 26.2441 0.288452C18.0918 0.288452 11.4844 6.8959 11.4844 15.0482C11.4844 23.2005 18.0918 29.8079 26.2441 29.8079ZM26.2441 20.7881C29.4142 20.7881 31.984 18.2183 31.984 15.0482C31.984 11.8781 29.4142 9.3083 26.2441 9.3083C23.0741 9.3083 20.5042 11.8781 20.5042 15.0482C20.5042 18.2183 23.0741 20.7881 26.2441 20.7881Z" fill="#8A42F9"/>
<path d="M11.4798 5.20837H0L6.12197 24.888H11.4798V5.20837Z" fill="#8A42F9"/>
</svg>
